HIERARCHY
ROOT Hips
{
	OFFSET 0.000000 0.000000 0.000000
	CHANNELS 6 Xposition Yposition Zposition Xrotation Yrotation Zrotation
	JOINT LeftUpLeg_virtual
	{
		OFFSET 0.000000 0.000000 0.000000
		CHANNELS 3 Xrotation Yrotation Zrotation
		JOINT LeftUpLeg
		{
			OFFSET 13.026900 -6.336304 -1.092800
			CHANNELS 3 Xrotation Yrotation Zrotation
			JOINT LeftLeg
			{
				OFFSET 0.524474 -46.096886 9.782700
				CHANNELS 3 Xrotation Yrotation Zrotation
				JOINT LeftFoot
				{
					OFFSET -0.524474 -53.427422 -12.948200
					CHANNELS 3 Xrotation Yrotation Zrotation
					JOINT LeftToeBase
					{
						OFFSET 0.192200 -14.009700 16.364100
						CHANNELS 3 Xrotation Yrotation Zrotation
						JOINT LeftToe_End
						{
							OFFSET -1.784700 -0.561700 9.474800
							CHANNELS 3 Xrotation Yrotation Zrotation
							End Site
							{
								OFFSET 0 0 0
							}
						}
					}
				}
			}
		}
	}
	JOINT RightUpLeg_virtual
	{
		OFFSET 0.000000 0.000000 0.000000
		CHANNELS 3 Xrotation Yrotation Zrotation
		JOINT RightUpLeg
		{
			OFFSET -12.883000 -6.336304 -1.092800
			CHANNELS 3 Xrotation Yrotation Zrotation
			JOINT RightLeg
			{
				OFFSET -0.524587 -46.096825 9.782800
				CHANNELS 3 Xrotation Yrotation Zrotation
				JOINT RightFoot
				{
					OFFSET 0.524587 -53.427383 -12.948300
					CHANNELS 3 Xrotation Yrotation Zrotation
					JOINT RightToeBase
					{
						OFFSET -0.192200 -14.009700 16.364100
						CHANNELS 3 Xrotation Yrotation Zrotation
						JOINT RightToe_End
						{
							OFFSET 1.784700 -0.561700 9.474800
							CHANNELS 3 Xrotation Yrotation Zrotation
							End Site
							{
								OFFSET 0 0 0
							}
						}
					}
				}
			}
		}
	}
	JOINT Spine_virtual
	{
		OFFSET 0.000000 0.000000 0.000000
		CHANNELS 3 Xrotation Yrotation Zrotation
		JOINT Spine
		{
			OFFSET 0.072000 7.257294 -0.789700
			CHANNELS 3 Xrotation Yrotation Zrotation
			JOINT Spine1
			{
				OFFSET 0.000000 12.508769 -0.658067
				CHANNELS 3 Xrotation Yrotation Zrotation
				JOINT Spine1_split
				{
					OFFSET 0.000000 12.508769 -0.658067
					CHANNELS 3 Xrotation Yrotation Zrotation
					JOINT Spine2
					{
						OFFSET 0.000000 12.508769 -0.658067
						CHANNELS 3 Xrotation Yrotation Zrotation
						JOINT Neck_virtual
						{
							OFFSET 0.000000 0.000000 0.000000
							CHANNELS 3 Xrotation Yrotation Zrotation
							JOINT Neck
							{
								OFFSET 0.000000 14.033295 7.520400
								CHANNELS 3 Xrotation Yrotation Zrotation
								JOINT Head
								{
									OFFSET 0.000000 8.198502 5.703100
									CHANNELS 3 Xrotation Yrotation Zrotation
									JOINT HeadTop_End
									{
										OFFSET 0.000000 17.760803 13.332701
										CHANNELS 3 Xrotation Yrotation Zrotation
										End Site
										{
											OFFSET 0 0 0
										}
									}
								}
							}
						}
						JOINT LeftShoulder_virtual
						{
							OFFSET 0.000000 0.000000 0.000000
							CHANNELS 3 Xrotation Yrotation Zrotation
							JOINT LeftShoulder
							{
								OFFSET 6.292450 5.785301 -0.669000
								CHANNELS 3 Xrotation Yrotation Zrotation
								JOINT LeftShoulder_split
								{
									OFFSET 6.292450 5.785301 -0.669000
									CHANNELS 3 Xrotation Yrotation Zrotation
									JOINT LeftArm
									{
										OFFSET 13.907140 -6.093903 1.965100
										CHANNELS 3 Xrotation Yrotation Zrotation
										JOINT LeftForeArm
										{
											OFFSET 34.140198 0.000000 0.000000
											CHANNELS 3 Xrotation Yrotation Zrotation
											JOINT LeftHand
											{
												OFFSET 40.960209 0.000000 0.000000
												CHANNELS 3 Xrotation Yrotation Zrotation
												End Site
												{
													OFFSET 0 0 0
												}
											}
										}
									}
								}
							}
						}
						JOINT RightShoulder_virtual
						{
							OFFSET 0.000000 0.000000 0.000000
							CHANNELS 3 Xrotation Yrotation Zrotation
							JOINT RightShoulder
							{
								OFFSET -6.292450 5.785301 -0.669000
								CHANNELS 3 Xrotation Yrotation Zrotation
								JOINT RightShoulder_split
								{
									OFFSET -6.292450 5.785301 -0.669000
									CHANNELS 3 Xrotation Yrotation Zrotation
									JOINT RightArm
									{
										OFFSET -13.907140 -6.093903 1.965100
										CHANNELS 3 Xrotation Yrotation Zrotation
										JOINT RightForeArm
										{
											OFFSET -34.140198 0.000000 0.000000
											CHANNELS 3 Xrotation Yrotation Zrotation
											JOINT RightHand
											{
												OFFSET -40.960209 0.000000 0.000000
												CHANNELS 3 Xrotation Yrotation Zrotation
												End Site
												{
													OFFSET 0 0 0
												}
											}
										}
									}
								}
							}
						}
					}
				}
			}
		}
	}
}
MOTION
Frames: 8
Frame Time: 0.03333333
0.639831 139.745422 3.452248 0.000000 0.000000 0.000000 -86.571316 -4.099424 -0.639815 -0.252689 18.221954 15.204518 -2.823086 4.485725 4.577384 17.057926 27.045462 -22.083625 -4.517574 -0.139189 0.638567 0.000000 0.000000 0.000000 -88.047620 -0.613407 1.261977 0.838221 -19.632653 -10.311204 0.090987 -3.256936 -6.412504 27.473780 -30.030180 28.768279 -11.271321 0.378290 -1.192427 0.000000 0.000000 0.000000 -86.750526 -6.217039 -3.684607 4.358170 1.643273 0.429919 16.646016 4.038847 -1.796563 0.492842 -0.346547 -0.098012 0.000000 0.000000 0.000000 14.962158 3.770070 -2.305142 -2.310701 1.142209 -4.115786 21.245008 4.810023 -8.727481 0.000000 0.000000 0.000000 16.810713 3.358484 -1.669206 -0.420873 7.038377 1.896950 -0.288301 -0.978488 -2.987511 15.737835 -51.474047 -39.654641 -0.385590 -80.939497 0.072840 0.000000 0.000000 0.000000 15.090045 3.540260 -2.064640 0.830479 2.140886 14.589851 1.351352 2.527248 1.743210 -34.020038 34.568322 62.228460 178.534984 53.690611 -179.979487 0.000000 0.000000 0.000000 
0.603677 139.531754 3.217178 0.000000 0.000000 0.000000 -86.461288 -4.519160 -0.974946 -0.235557 17.858604 15.386499 -2.921313 4.838313 4.596815 17.009493 27.369282 -22.117326 -4.522231 -0.150704 0.539245 0.000000 0.000000 0.000000 -87.990219 -1.203369 0.747682 0.335240 -19.772359 -10.103660 -0.161505 -3.163535 -6.319072 27.928278 -29.521106 28.788196 -11.617047 0.374464 -1.129202 0.000000 0.000000 0.000000 -86.741886 -6.632971 -3.847241 3.707238 1.469805 0.397934 16.364519 3.834271 -1.676720 0.616345 -0.168978 -0.152508 0.000000 0.000000 0.000000 14.746626 3.618702 -2.207300 -1.507014 0.968197 -3.962246 21.825484 4.953989 -8.940422 0.000000 0.000000 0.000000 16.618089 3.151580 -1.569140 -0.339498 6.415538 1.608906 -0.367300 -1.089857 -2.798732 16.844572 -50.467575 -39.891703 -0.412177 -81.167311 -0.097451 0.000000 0.000000 0.000000 14.981258 3.388430 -1.913465 0.873920 1.555443 14.816567 0.969142 2.707137 1.884682 -34.329098 35.677828 62.048894 178.444962 54.865011 -179.900148 0.000000 0.000000 0.000000 
0.582081 139.338257 3.116203 0.000000 0.000000 0.000000 -86.186298 -4.903685 -1.430396 -0.377576 17.442333 15.519889 -3.125736 5.151468 4.524879 17.475032 27.596619 -22.145666 -4.619494 -0.178365 0.457989 0.000000 0.000000 0.000000 -87.684008 -1.662197 0.175234 -0.213688 -19.860658 -9.986486 -0.519280 -3.060138 -6.162474 28.903312 -28.854807 29.074117 -12.202116 0.370182 -1.079315 0.000000 0.000000 0.000000 -86.469000 -6.888735 -4.037351 3.011178 1.261569 0.442361 15.913721 3.486392 -1.502586 0.724125 0.067384 -0.160344 0.000000 0.000000 0.000000 14.301417 3.322067 -2.028817 -0.677806 0.778575 -3.709282 22.391527 4.819539 -9.038458 0.000000 0.000000 0.000000 16.230840 2.796373 -1.394746 -0.238668 5.748767 1.441733 -0.453259 -1.030473 -2.624716 17.953050 -49.358693 -40.689093 -0.535390 -81.563059 -0.419246 0.000000 0.000000 0.000000 14.703251 3.092270 -1.715181 0.889589 1.039369 14.912757 0.628912 3.003486 2.083422 -33.590013 36.955889 61.181522 178.340952 55.462256 -179.746263 0.000000 0.000000 0.000000 
0.577101 139.177917 3.075058 0.000000 0.000000 0.000000 -85.759753 -5.223439 -1.964966 -0.655375 17.059900 15.583150 -3.412394 5.391511 4.365970 18.416367 27.679661 -22.210508 -4.692127 -0.213632 0.400281 0.000000 0.000000 0.000000 -87.213490 -2.016739 -0.444203 -0.683467 -19.897825 -9.899139 -1.031080 -3.020627 -5.989027 29.992286 -28.306389 29.373836 -12.767939 0.365159 -1.039011 0.000000 0.000000 0.000000 -86.012251 -7.007339 -4.301587 2.364037 1.032322 0.570194 15.278681 3.017444 -1.274030 0.802234 0.289630 -0.211535 0.000000 0.000000 0.000000 13.628956 2.902101 -1.780156 0.019350 0.591885 -3.384431 22.792350 4.537642 -9.100116 0.000000 0.000000 0.000000 15.620245 2.327393 -1.160520 -0.126241 5.116514 1.356867 -0.522497 -0.955160 -2.513002 19.154425 -48.065967 -41.899321 -1.009635 -81.973656 -1.115027 0.000000 0.000000 0.000000 14.230852 2.676530 -1.478270 0.857796 0.598111 14.844380 0.381005 3.143849 2.299961 -31.856822 38.163822 59.530378 178.274809 55.333487 -179.561575 0.000000 0.000000 0.000000 
0.558326 139.071594 3.164143 0.000000 0.000000 0.000000 -85.301618 -5.434817 -2.492653 -0.981100 16.787912 15.555758 -3.728660 5.579958 4.150858 19.627882 27.645802 -22.316892 -4.742184 -0.246384 0.374912 0.000000 0.000000 0.000000 -86.658059 -2.269823 -1.035353 -0.988947 -19.887289 -9.787850 -1.633363 -3.094727 -5.857900 30.854919 -28.139071 29.464937 -13.232322 0.361164 -1.020712 0.000000 0.000000 0.000000 -85.448692 -7.014075 -4.612351 1.859728 0.807678 0.759883 14.473266 2.478362 -1.007966 0.874923 0.633053 -0.270742 0.000000 0.000000 0.000000 12.766097 2.404396 -1.482814 0.464230 0.430026 -3.069585 22.962527 4.203106 -9.214597 0.000000 0.000000 0.000000 14.803054 1.804052 -0.898307 -0.024260 4.518282 1.319340 -0.739096 -0.891500 -2.513848 20.464189 -46.565416 -43.319153 -2.010984 -82.219461 -2.297237 0.000000 0.000000 0.000000 13.551650 2.203154 -1.217711 0.744424 0.234441 14.700307 0.302533 3.040057 2.453633 -29.436971 39.043882 57.291736 178.294247 54.625729 -179.400956 0.000000 0.000000 0.000000 
0.550212 139.068314 3.232155 0.000000 0.000000 0.000000 -84.864902 -5.570657 -2.952532 -1.234914 16.657614 15.441149 -4.032787 5.733537 3.932897 20.880879 27.564178 -22.476993 -4.825349 -0.267525 0.394199 0.000000 0.000000 0.000000 -86.135249 -2.509227 -1.599773 -1.102626 -19.869626 -9.642510 -2.172123 -3.274705 -5.778387 31.431308 -28.338457 29.384474 -13.647802 0.363115 -1.033206 0.000000 0.000000 0.000000 -84.901499 -7.008034 -4.967462 1.546280 0.602685 0.962376 13.525841 1.923590 -0.741830 0.937237 0.901997 -0.390189 0.000000 0.000000 0.000000 11.774139 1.888900 -1.173816 0.596798 0.332711 -2.818397 22.877229 3.939011 -9.412581 0.000000 0.000000 0.000000 13.819220 1.290365 -0.642006 0.052031 3.968790 1.259131 -0.997986 -0.920365 -2.624947 21.757998 -44.904952 -44.753250 -3.414534 -82.257348 -3.798427 0.000000 0.000000 0.000000 12.713917 1.733115 -0.961169 0.534901 -0.047840 14.555710 0.392413 2.748698 2.741713 -26.690731 39.496662 54.844944 178.372508 53.787770 -179.257113 0.000000 0.000000 0.000000 
0.522256 139.136383 3.312366 0.000000 0.000000 0.000000 -84.537265 -5.675049 -3.309499 -1.304933 16.712693 15.260529 -4.258171 5.875800 3.750054 21.931266 27.470384 -22.686782 -4.987502 -0.271082 0.445839 0.000000 0.000000 0.000000 -85.768345 -2.731829 -2.045581 -1.081377 -19.846877 -9.521415 -2.563850 -3.413489 -5.731135 31.831461 -28.662377 29.342284 -14.128934 0.373084 -1.081600 0.000000 0.000000 0.000000 -84.476278 -7.038680 -5.306657 1.433488 0.422388 1.110443 12.462904 1.402707 -0.510606 1.034271 1.179691 -0.485693 0.000000 0.000000 0.000000 10.720306 1.417949 -0.895921 0.462424 0.314335 -2.678874 22.608635 3.826880 -9.682981 0.000000 0.000000 0.000000 12.716613 0.847776 -0.422360 0.094810 3.520807 1.107213 -1.256547 -0.977074 -2.780130 22.907500 -43.222646 -46.027958 -4.628523 -82.082427 -5.028269 0.000000 0.000000 0.000000 11.748467 1.319542 -0.748528 0.241716 -0.246286 14.456433 0.625365 2.479093 3.104646 -23.984394 39.497143 52.645380 178.472747 53.201573 -179.119320 0.000000 0.000000 0.000000 
0.475491 139.273712 3.347958 0.000000 0.000000 0.000000 -84.371606 -5.797174 -3.561918 -1.191207 16.979266 15.073406 -4.402268 6.021620 3.631564 22.591699 27.416572 -22.870779 -5.224348 -0.257517 0.523053 0.000000 0.000000 0.000000 -85.586170 -2.958811 -2.376455 -1.009648 -19.860928 -9.452252 -2.728678 -3.435301 -5.691832 32.167759 -28.906908 29.468189 -14.653090 0.390780 -1.154555 0.000000 0.000000 0.000000 -84.230726 -7.152590 -5.604500 1.484051 0.263072 1.173336 11.300806 0.953881 -0.338668 1.009880 1.409252 -0.586436 0.000000 0.000000 0.000000 9.621152 1.021577 -0.673090 0.164033 0.359933 -2.633042 22.275605 3.859864 -9.936766 0.000000 0.000000 0.000000 11.541647 0.501927 -0.251195 0.089729 3.194830 0.902382 -1.429509 -1.048402 -2.964323 23.794572 -41.670024 -47.090350 -5.293877 -81.780423 -5.632820 0.000000 0.000000 0.000000 10.700854 0.991763 -0.602497 -0.120544 -0.354733 14.416130 0.984375 2.361149 3.364679 -21.533712 39.153950 50.968091 178.573219 53.035620 -178.999574 0.000000 0.000000 0.000000 
